<mxfile host="65bd71144e">
    <diagram id="CWRe7quZKDYtSG6snrW3" name="Page-1">
        <mxGraphModel dx="1489" dy="395" grid="1" gridSize="10" guides="1" tooltips="1" connect="1" arrows="1" fold="1" page="1" pageScale="1" pageWidth="827" pageHeight="1169" math="0" shadow="0">
            <root>
                <mxCell id="0"/>
                <mxCell id="1" parent="0"/>
                <mxCell id="10" value="Cliente" style="swimlane;fontStyle=0;childLayout=stackLayout;horizontal=1;startSize=26;fillColor=none;horizontalStack=0;resizeParent=1;resizeParentMax=0;resizeLast=0;collapsible=1;marginBottom=0;" parent="1" vertex="1">
                    <mxGeometry x="-200" y="247" width="170" height="338" as="geometry"/>
                </mxCell>
                <mxCell id="11" value="_id: ObjectId" style="text;strokeColor=none;fillColor=none;align=left;verticalAlign=top;spacingLeft=4;spacingRight=4;overflow=hidden;rotatable=0;points=[[0,0.5],[1,0.5]];portConstraint=eastwest;" parent="10" vertex="1">
                    <mxGeometry y="26" width="170" height="26" as="geometry"/>
                </mxCell>
                <mxCell id="12" value="nome: String" style="text;strokeColor=none;fillColor=none;align=left;verticalAlign=top;spacingLeft=4;spacingRight=4;overflow=hidden;rotatable=0;points=[[0,0.5],[1,0.5]];portConstraint=eastwest;" parent="10" vertex="1">
                    <mxGeometry y="52" width="170" height="26" as="geometry"/>
                </mxCell>
                <mxCell id="34" value="logradouro: String" style="text;strokeColor=none;fillColor=none;align=left;verticalAlign=top;spacingLeft=4;spacingRight=4;overflow=hidden;rotatable=0;points=[[0,0.5],[1,0.5]];portConstraint=eastwest;" parent="10" vertex="1">
                    <mxGeometry y="78" width="170" height="26" as="geometry"/>
                </mxCell>
                <mxCell id="41" value="cpf: String (unique)" style="text;strokeColor=none;fillColor=none;align=left;verticalAlign=top;spacingLeft=4;spacingRight=4;overflow=hidden;rotatable=0;points=[[0,0.5],[1,0.5]];portConstraint=eastwest;" parent="10" vertex="1">
                    <mxGeometry y="104" width="170" height="26" as="geometry"/>
                </mxCell>
                <mxCell id="33" value="data_nascimento: DateTime?" style="text;strokeColor=none;fillColor=none;align=left;verticalAlign=top;spacingLeft=4;spacingRight=4;overflow=hidden;rotatable=0;points=[[0,0.5],[1,0.5]];portConstraint=eastwest;" parent="10" vertex="1">
                    <mxGeometry y="130" width="170" height="26" as="geometry"/>
                </mxCell>
                <mxCell id="35" value="num_casa: String" style="text;strokeColor=none;fillColor=none;align=left;verticalAlign=top;spacingLeft=4;spacingRight=4;overflow=hidden;rotatable=0;points=[[0,0.5],[1,0.5]];portConstraint=eastwest;" parent="10" vertex="1">
                    <mxGeometry y="156" width="170" height="26" as="geometry"/>
                </mxCell>
                <mxCell id="36" value="bairro: String" style="text;strokeColor=none;fillColor=none;align=left;verticalAlign=top;spacingLeft=4;spacingRight=4;overflow=hidden;rotatable=0;points=[[0,0.5],[1,0.5]];portConstraint=eastwest;" parent="10" vertex="1">
                    <mxGeometry y="182" width="170" height="26" as="geometry"/>
                </mxCell>
                <mxCell id="37" value="complemento: String?" style="text;strokeColor=none;fillColor=none;align=left;verticalAlign=top;spacingLeft=4;spacingRight=4;overflow=hidden;rotatable=0;points=[[0,0.5],[1,0.5]];portConstraint=eastwest;" parent="10" vertex="1">
                    <mxGeometry y="208" width="170" height="26" as="geometry"/>
                </mxCell>
                <mxCell id="38" value="municipio: String" style="text;strokeColor=none;fillColor=none;align=left;verticalAlign=top;spacingLeft=4;spacingRight=4;overflow=hidden;rotatable=0;points=[[0,0.5],[1,0.5]];portConstraint=eastwest;" parent="10" vertex="1">
                    <mxGeometry y="234" width="170" height="26" as="geometry"/>
                </mxCell>
                <mxCell id="39" value="uf: String" style="text;strokeColor=none;fillColor=none;align=left;verticalAlign=top;spacingLeft=4;spacingRight=4;overflow=hidden;rotatable=0;points=[[0,0.5],[1,0.5]];portConstraint=eastwest;" parent="10" vertex="1">
                    <mxGeometry y="260" width="170" height="26" as="geometry"/>
                </mxCell>
                <mxCell id="40" value="telefone: String" style="text;strokeColor=none;fillColor=none;align=left;verticalAlign=top;spacingLeft=4;spacingRight=4;overflow=hidden;rotatable=0;points=[[0,0.5],[1,0.5]];portConstraint=eastwest;" parent="10" vertex="1">
                    <mxGeometry y="286" width="170" height="26" as="geometry"/>
                </mxCell>
                <mxCell id="13" value="email: String" style="text;strokeColor=none;fillColor=none;align=left;verticalAlign=top;spacingLeft=4;spacingRight=4;overflow=hidden;rotatable=0;points=[[0,0.5],[1,0.5]];portConstraint=eastwest;" parent="10" vertex="1">
                    <mxGeometry y="312" width="170" height="26" as="geometry"/>
                </mxCell>
                <mxCell id="14" value="Fornecedor" style="swimlane;fontStyle=0;childLayout=stackLayout;horizontal=1;startSize=26;fillColor=none;horizontalStack=0;resizeParent=1;resizeParentMax=0;resizeLast=0;collapsible=1;marginBottom=0;" parent="1" vertex="1">
                    <mxGeometry x="840" y="251" width="150" height="338" as="geometry"/>
                </mxCell>
                <mxCell id="15" value="_id: ObjectId" style="text;strokeColor=none;fillColor=none;align=left;verticalAlign=top;spacingLeft=4;spacingRight=4;overflow=hidden;rotatable=0;points=[[0,0.5],[1,0.5]];portConstraint=eastwest;" parent="14" vertex="1">
                    <mxGeometry y="26" width="150" height="26" as="geometry"/>
                </mxCell>
                <mxCell id="16" value="razao_social: String" style="text;strokeColor=none;fillColor=none;align=left;verticalAlign=top;spacingLeft=4;spacingRight=4;overflow=hidden;rotatable=0;points=[[0,0.5],[1,0.5]];portConstraint=eastwest;" parent="14" vertex="1">
                    <mxGeometry y="52" width="150" height="26" as="geometry"/>
                </mxCell>
                <mxCell id="17" value="nome_fantasia: String" style="text;strokeColor=none;fillColor=none;align=left;verticalAlign=top;spacingLeft=4;spacingRight=4;overflow=hidden;rotatable=0;points=[[0,0.5],[1,0.5]];portConstraint=eastwest;" parent="14" vertex="1">
                    <mxGeometry y="78" width="150" height="26" as="geometry"/>
                </mxCell>
                <mxCell id="45" value="cnpj: String (unique)" style="text;strokeColor=none;fillColor=none;align=left;verticalAlign=top;spacingLeft=4;spacingRight=4;overflow=hidden;rotatable=0;points=[[0,0.5],[1,0.5]];portConstraint=eastwest;" parent="14" vertex="1">
                    <mxGeometry y="104" width="150" height="26" as="geometry"/>
                </mxCell>
                <mxCell id="46" value="logradouro: String" style="text;strokeColor=none;fillColor=none;align=left;verticalAlign=top;spacingLeft=4;spacingRight=4;overflow=hidden;rotatable=0;points=[[0,0.5],[1,0.5]];portConstraint=eastwest;" parent="14" vertex="1">
                    <mxGeometry y="130" width="150" height="26" as="geometry"/>
                </mxCell>
                <mxCell id="47" value="num_casa: String" style="text;strokeColor=none;fillColor=none;align=left;verticalAlign=top;spacingLeft=4;spacingRight=4;overflow=hidden;rotatable=0;points=[[0,0.5],[1,0.5]];portConstraint=eastwest;" parent="14" vertex="1">
                    <mxGeometry y="156" width="150" height="26" as="geometry"/>
                </mxCell>
                <mxCell id="48" value="bairro: String" style="text;strokeColor=none;fillColor=none;align=left;verticalAlign=top;spacingLeft=4;spacingRight=4;overflow=hidden;rotatable=0;points=[[0,0.5],[1,0.5]];portConstraint=eastwest;" parent="14" vertex="1">
                    <mxGeometry y="182" width="150" height="26" as="geometry"/>
                </mxCell>
                <mxCell id="49" value="complemento: String?" style="text;strokeColor=none;fillColor=none;align=left;verticalAlign=top;spacingLeft=4;spacingRight=4;overflow=hidden;rotatable=0;points=[[0,0.5],[1,0.5]];portConstraint=eastwest;" parent="14" vertex="1">
                    <mxGeometry y="208" width="150" height="26" as="geometry"/>
                </mxCell>
                <mxCell id="50" value="municipio: String" style="text;strokeColor=none;fillColor=none;align=left;verticalAlign=top;spacingLeft=4;spacingRight=4;overflow=hidden;rotatable=0;points=[[0,0.5],[1,0.5]];portConstraint=eastwest;" parent="14" vertex="1">
                    <mxGeometry y="234" width="150" height="26" as="geometry"/>
                </mxCell>
                <mxCell id="51" value="uf: String" style="text;strokeColor=none;fillColor=none;align=left;verticalAlign=top;spacingLeft=4;spacingRight=4;overflow=hidden;rotatable=0;points=[[0,0.5],[1,0.5]];portConstraint=eastwest;" parent="14" vertex="1">
                    <mxGeometry y="260" width="150" height="26" as="geometry"/>
                </mxCell>
                <mxCell id="52" value="telefone: String" style="text;strokeColor=none;fillColor=none;align=left;verticalAlign=top;spacingLeft=4;spacingRight=4;overflow=hidden;rotatable=0;points=[[0,0.5],[1,0.5]];portConstraint=eastwest;" parent="14" vertex="1">
                    <mxGeometry y="286" width="150" height="26" as="geometry"/>
                </mxCell>
                <mxCell id="53" value="email: String" style="text;strokeColor=none;fillColor=none;align=left;verticalAlign=top;spacingLeft=4;spacingRight=4;overflow=hidden;rotatable=0;points=[[0,0.5],[1,0.5]];portConstraint=eastwest;" parent="14" vertex="1">
                    <mxGeometry y="312" width="150" height="26" as="geometry"/>
                </mxCell>
                <mxCell id="18" value="Venda" style="swimlane;fontStyle=0;childLayout=stackLayout;horizontal=1;startSize=20;fillColor=none;horizontalStack=0;resizeParent=1;resizeParentMax=0;resizeLast=0;collapsible=1;marginBottom=0;" parent="1" vertex="1">
                    <mxGeometry x="58" y="250" width="140" height="124" as="geometry"/>
                </mxCell>
                <mxCell id="19" value="_id: ObjectId" style="text;strokeColor=none;fillColor=none;align=left;verticalAlign=top;spacingLeft=4;spacingRight=4;overflow=hidden;rotatable=0;points=[[0,0.5],[1,0.5]];portConstraint=eastwest;" parent="18" vertex="1">
                    <mxGeometry y="20" width="140" height="26" as="geometry"/>
                </mxCell>
                <mxCell id="20" value="num_venda: int" style="text;strokeColor=none;fillColor=none;align=left;verticalAlign=top;spacingLeft=4;spacingRight=4;overflow=hidden;rotatable=0;points=[[0,0.5],[1,0.5]];portConstraint=eastwest;" parent="18" vertex="1">
                    <mxGeometry y="46" width="140" height="26" as="geometry"/>
                </mxCell>
                <mxCell id="21" value="data_venda: DateTime" style="text;strokeColor=none;fillColor=none;align=left;verticalAlign=top;spacingLeft=4;spacingRight=4;overflow=hidden;rotatable=0;points=[[0,0.5],[1,0.5]];portConstraint=eastwest;" parent="18" vertex="1">
                    <mxGeometry y="72" width="140" height="26" as="geometry"/>
                </mxCell>
                <mxCell id="60" value="cliente: Cliente" style="text;strokeColor=none;fillColor=none;align=left;verticalAlign=top;spacingLeft=4;spacingRight=4;overflow=hidden;rotatable=0;points=[[0,0.5],[1,0.5]];portConstraint=eastwest;" parent="18" vertex="1">
                    <mxGeometry y="98" width="140" height="26" as="geometry"/>
                </mxCell>
                <mxCell id="27" value="Produto" style="swimlane;fontStyle=0;childLayout=stackLayout;horizontal=1;startSize=26;fillColor=none;horizontalStack=0;resizeParent=1;resizeParentMax=0;resizeLast=0;collapsible=1;marginBottom=0;" parent="1" vertex="1">
                    <mxGeometry x="565" y="250" width="155" height="182" as="geometry"/>
                </mxCell>
                <mxCell id="28" value="_id: ObjectId" style="text;strokeColor=none;fillColor=none;align=left;verticalAlign=top;spacingLeft=4;spacingRight=4;overflow=hidden;rotatable=0;points=[[0,0.5],[1,0.5]];portConstraint=eastwest;" parent="27" vertex="1">
                    <mxGeometry y="26" width="155" height="26" as="geometry"/>
                </mxCell>
                <mxCell id="29" value="descricao: String" style="text;strokeColor=none;fillColor=none;align=left;verticalAlign=top;spacingLeft=4;spacingRight=4;overflow=hidden;rotatable=0;points=[[0,0.5],[1,0.5]];portConstraint=eastwest;" parent="27" vertex="1">
                    <mxGeometry y="52" width="155" height="26" as="geometry"/>
                </mxCell>
                <mxCell id="30" value="unidade_medida: String" style="text;strokeColor=none;fillColor=none;align=left;verticalAlign=top;spacingLeft=4;spacingRight=4;overflow=hidden;rotatable=0;points=[[0,0.5],[1,0.5]];portConstraint=eastwest;" parent="27" vertex="1">
                    <mxGeometry y="78" width="155" height="26" as="geometry"/>
                </mxCell>
                <mxCell id="42" value="quantidade: Double" style="text;strokeColor=none;fillColor=none;align=left;verticalAlign=top;spacingLeft=4;spacingRight=4;overflow=hidden;rotatable=0;points=[[0,0.5],[1,0.5]];portConstraint=eastwest;" parent="27" vertex="1">
                    <mxGeometry y="104" width="155" height="26" as="geometry"/>
                </mxCell>
                <mxCell id="43" value="valor_unitario: Double" style="text;strokeColor=none;fillColor=none;align=left;verticalAlign=top;spacingLeft=4;spacingRight=4;overflow=hidden;rotatable=0;points=[[0,0.5],[1,0.5]];portConstraint=eastwest;" parent="27" vertex="1">
                    <mxGeometry y="130" width="155" height="26" as="geometry"/>
                </mxCell>
                <mxCell id="74" value="fornecedor: [Fornecedor]" style="text;strokeColor=none;fillColor=none;align=left;verticalAlign=top;spacingLeft=4;spacingRight=4;overflow=hidden;rotatable=0;points=[[0,0.5],[1,0.5]];portConstraint=eastwest;" parent="27" vertex="1">
                    <mxGeometry y="156" width="155" height="26" as="geometry"/>
                </mxCell>
                <mxCell id="54" value="ItemVenda" style="swimlane;fontStyle=0;childLayout=stackLayout;horizontal=1;startSize=20;fillColor=none;horizontalStack=0;resizeParent=1;resizeParentMax=0;resizeLast=0;collapsible=1;marginBottom=0;" parent="1" vertex="1">
                    <mxGeometry x="289" y="251" width="140" height="124" as="geometry"/>
                </mxCell>
                <mxCell id="55" value="_id: ObjectId" style="text;strokeColor=none;fillColor=none;align=left;verticalAlign=top;spacingLeft=4;spacingRight=4;overflow=hidden;rotatable=0;points=[[0,0.5],[1,0.5]];portConstraint=eastwest;" parent="54" vertex="1">
                    <mxGeometry y="20" width="140" height="26" as="geometry"/>
                </mxCell>
                <mxCell id="56" value="num_item: int" style="text;strokeColor=none;fillColor=none;align=left;verticalAlign=top;spacingLeft=4;spacingRight=4;overflow=hidden;rotatable=0;points=[[0,0.5],[1,0.5]];portConstraint=eastwest;" parent="54" vertex="1">
                    <mxGeometry y="46" width="140" height="26" as="geometry"/>
                </mxCell>
                <mxCell id="57" value="produto: Produto&#10;" style="text;strokeColor=none;fillColor=none;align=left;verticalAlign=top;spacingLeft=4;spacingRight=4;overflow=hidden;rotatable=0;points=[[0,0.5],[1,0.5]];portConstraint=eastwest;" parent="54" vertex="1">
                    <mxGeometry y="72" width="140" height="26" as="geometry"/>
                </mxCell>
                <mxCell id="58" value="quantidade: Double" style="text;strokeColor=none;fillColor=none;align=left;verticalAlign=top;spacingLeft=4;spacingRight=4;overflow=hidden;rotatable=0;points=[[0,0.5],[1,0.5]];portConstraint=eastwest;" parent="54" vertex="1">
                    <mxGeometry y="98" width="140" height="26" as="geometry"/>
                </mxCell>
                <mxCell id="59" value="" style="endArrow=diamondThin;endFill=0;endSize=24;html=1;exitX=1.018;exitY=0.038;exitDx=0;exitDy=0;exitPerimeter=0;entryX=0.014;entryY=0.082;entryDx=0;entryDy=0;entryPerimeter=0;" parent="1" source="10" target="18" edge="1">
                    <mxGeometry width="160" relative="1" as="geometry">
                        <mxPoint x="100" y="180" as="sourcePoint"/>
                        <mxPoint x="260" y="180" as="targetPoint"/>
                    </mxGeometry>
                </mxCell>
                <mxCell id="65" value="1" style="edgeLabel;html=1;align=center;verticalAlign=middle;resizable=0;points=[];" parent="59" vertex="1" connectable="0">
                    <mxGeometry x="-0.9126" y="-1" relative="1" as="geometry">
                        <mxPoint as="offset"/>
                    </mxGeometry>
                </mxCell>
                <mxCell id="66" value="0.*" style="edgeLabel;html=1;align=center;verticalAlign=middle;resizable=0;points=[];" parent="59" vertex="1" connectable="0">
                    <mxGeometry x="0.657" y="1" relative="1" as="geometry">
                        <mxPoint as="offset"/>
                    </mxGeometry>
                </mxCell>
                <mxCell id="62" value="" style="endArrow=diamondThin;endFill=1;endSize=24;html=1;exitX=1.007;exitY=0.097;exitDx=0;exitDy=0;exitPerimeter=0;entryX=-0.014;entryY=0.089;entryDx=0;entryDy=0;entryPerimeter=0;" parent="1" source="18" target="54" edge="1">
                    <mxGeometry width="160" relative="1" as="geometry">
                        <mxPoint x="50" y="380" as="sourcePoint"/>
                        <mxPoint x="210" y="380" as="targetPoint"/>
                    </mxGeometry>
                </mxCell>
                <mxCell id="63" value="1" style="edgeLabel;html=1;align=center;verticalAlign=middle;resizable=0;points=[];" parent="62" vertex="1" connectable="0">
                    <mxGeometry x="-0.901" relative="1" as="geometry">
                        <mxPoint x="7" y="-9" as="offset"/>
                    </mxGeometry>
                </mxCell>
                <mxCell id="64" value="0.*" style="edgeLabel;html=1;align=center;verticalAlign=middle;resizable=0;points=[];" parent="62" vertex="1" connectable="0">
                    <mxGeometry x="0.2703" relative="1" as="geometry">
                        <mxPoint y="-8" as="offset"/>
                    </mxGeometry>
                </mxCell>
                <mxCell id="68" value="" style="endArrow=diamondThin;endFill=0;endSize=24;html=1;exitX=-0.018;exitY=0.066;exitDx=0;exitDy=0;exitPerimeter=0;" parent="1" source="27" edge="1">
                    <mxGeometry width="160" relative="1" as="geometry">
                        <mxPoint x="530" y="190" as="sourcePoint"/>
                        <mxPoint x="430" y="260" as="targetPoint"/>
                    </mxGeometry>
                </mxCell>
                <mxCell id="69" value="1" style="edgeLabel;html=1;align=center;verticalAlign=middle;resizable=0;points=[];" parent="68" vertex="1" connectable="0">
                    <mxGeometry x="-0.7409" relative="1" as="geometry">
                        <mxPoint x="5" y="-8" as="offset"/>
                    </mxGeometry>
                </mxCell>
                <mxCell id="70" value="0.*" style="edgeLabel;html=1;align=center;verticalAlign=middle;resizable=0;points=[];" parent="68" vertex="1" connectable="0">
                    <mxGeometry x="0.423" relative="1" as="geometry">
                        <mxPoint x="-6" y="-8" as="offset"/>
                    </mxGeometry>
                </mxCell>
                <mxCell id="71" value="" style="endArrow=block;startArrow=block;endFill=1;startFill=1;html=1;exitX=1.02;exitY=0.105;exitDx=0;exitDy=0;exitPerimeter=0;entryX=-0.02;entryY=0.047;entryDx=0;entryDy=0;entryPerimeter=0;" parent="1" source="27" target="14" edge="1">
                    <mxGeometry width="160" relative="1" as="geometry">
                        <mxPoint x="780" y="290" as="sourcePoint"/>
                        <mxPoint x="940" y="290" as="targetPoint"/>
                    </mxGeometry>
                </mxCell>
                <mxCell id="72" value="0.*" style="edgeLabel;html=1;align=center;verticalAlign=middle;resizable=0;points=[];" parent="71" vertex="1" connectable="0">
                    <mxGeometry x="-0.7341" relative="1" as="geometry">
                        <mxPoint x="5" y="-10" as="offset"/>
                    </mxGeometry>
                </mxCell>
                <mxCell id="73" value="0.*" style="edgeLabel;html=1;align=center;verticalAlign=middle;resizable=0;points=[];" parent="71" vertex="1" connectable="0">
                    <mxGeometry x="0.6912" relative="1" as="geometry">
                        <mxPoint y="-9" as="offset"/>
                    </mxGeometry>
                </mxCell>
                <mxCell id="78" value="" style="shape=stencil(lZ3ZshzHDUS/hq8dtS/PsvwfihBlMSyLCore/t4o090zk+g5Jb+R9wK9VFehEoks3A/5u99//uG3jx9S+P3rl89//fjPTz9+/flD/tOHlD79+vPHL5++2r8+5O8/5O9++vzl41++fP77rz9++/9vPyzL9a+/ff7HusK/vvmNcuS6vFL497efxHDE8N+f/Pmbwy+ffn12yEcbLw7zqBntQxb7SPbpiOnFfhytg304Zhf7CPbdHre92He8fu/HmGL/vwe8t29HeH3+dpQJ9uWI8cW+HpOub+MzxT43sA9HKi/25Rhg38aRqthnGJ/W9HnyMci+HKGJfYb3bfFor9dPx4D5WaeOZzpn+L19O3J4XQDHhPlZ8zkcD/sK41nDUYrYJ7h+6Ud9vb5N8AH29jmz2NP4lHSkJvYN5mcJRyhqD98rjyPo81eYD7lpADJ7un45ul6/0PXzkZw9jH+Ox0hin2H883W5J3uYDxb+go4/Xd/CTQ/6/BHs23m5p/Gk56lHmGLfYTxtuU5dLwHWly2/PsU+w3yzX3fZkHA+r+mu6z3B+8Z5zCb2vaC9i28JxieOowaxH/C9ou0vLt7CfDD7FMWe4kNsR9P9pcL4m314ff52bgj39tf287CfNJ5F4znvv2Yv+GEcBeJDzPo89gFpPiSdbxP3R7OPDjBVGiDbH2QD4B3Aricz1Bzwka6IcDmko4CDLQGxz7iG51GC2jf4xkMhk31EeuNx5KL2gzDQGREu+4oxsbstvp6g8R5zaEixRVHhfS3kvk5RW6SRMIcuebOnGFTd9x3nHe/37GNOtSdMaUtSnmfiHlz0e1kQjoRRdAkvTEN78NFft+C1KaC9jI/FdPpe+cxwLvuMmCApJEgFMWXSFGNhdNrDTgR82VvMJUygW7bNcLK/wsdlPzA+xHN1X/bz6LSHKcQ1EBUopisEzQlzJLvaK6QxEBjAPihEyRUxRDjf7rK/QNcbe4noeZ4z9o29QMQSEXMHhcQlY3wI59e/7OsZ4d/ZS0o4zhF+Z/86P+v1k3f2AjnSuYP8wesXxChmLylwQ8waTsRw2Q+MP5bhCASKZxL0xl7iecvIEUSFEK0eCcYnntH4su8YT+KJCC/7iTl20vncI2Joezuxz7jfZd2vO2PWohC6txOkvdkfZf70gfHZQdw+cT40TWFGxOt3jf8jHQ3Gcyh+GBkB39T9axRc74ZoX+fDqMjRGKCUnHM0BGQL48oIMaIxgFpfl8AYSBMY4tQ7TMyzDUIqrg/ntH2XyEzngLC7n0Tm5RA5ExhKRcyEuMlgWJ7q0CmZt0gn5Cxnqz60zIxb2YoV8g4Fh9UWv3cgwnit/qoONFtt+QtcmRxOF77v6kB4d1HKQx06kRjTvUM7aZ93LJKE7NkwxOSkOZk5UIzJWXlCc6AkyDBTft3FZz9/8o7J600dKE3MQ/cRc8C8YCrQnOOEGu/IS0F2k5GvAbOZ1KHBdygulzCHznytDuvAMGNYTtDj3GRzza3pgV96Uc4SZuZZxLh3GGc69uxAJPI8OaEnB6rS1Hiu4CcHgiTV5VzmgLx/1iR5XrPr3qGeYevJoVIlwu8PE/cHQ6W6Zc0Tid7jkqDAYTnAhzMcO/wdCPlkTfWXA1Eh5WZqoENTPnzn0LUAs3MY5yv+UYd5N0rg0KPWPHYOyQWBjUN2G8o8ed17B1cWmszprLqlewcionvXQuFaonSHoTTNihoEo6eDDgNh6AhuAQ0kggzHa1waZ2587+BSH9uyBozS8OG+I9dh0FwhXEcyxaB5c1iD4tLomg4sNEMvPV0gK8inTEdgGKokcGLAuThkTBmr/VodAqaIM+suagnHhO8wi9bRbKAnvUNVVsu+/aBHalpZ3aSJC+FJDhSwFmIzR4geW4Mk7jAHid698iMNl3pn3NgXnJJH4nrywi6vDhbPqaDzQBZP7AreYepstV0vUDo9lZ9YGzG99LUrXwRUR8JqTmXADX1Emq1TsXflsuZyeJ3elevKy+F18hkKpCzL38GAKWWKy0FoyYIJxxpWucNmAU0Fuob3cT1MDcYbpnfNpdcFlMduWIULzB1TGr8eLO8KAOGmA+u5nPz4O4cqdDiXsKfjNSw7xek9VCP1UF28jUsySlxBWptsVweiuGfX72A5PDEn0xUJV1GFw73sQJvKt98fHsTFux1IpndqmMeZgxbCKsfWctTX9ZA2S7S4d8g8SlmT1wfj9M5B5tIqFtL0dmz34u9pLvlyW+BhjUqfRubfZ3QizHGGtncOUlGNA0HiQkdSYmcYOr1srZ386DuH6ByoqDpclhVZ+WgOKqSouzskGaWCUWO42GoOeIdx7jeXQ97dwUspEKwPRTMx4y5q6F7fISEhtZj6pA6kqDMH2RQfmph3DskLWvgOsqZjZMGJox7NgbZdc5D9wRwIYJlDlDsETAdWiaWoA3HGo2rkMwdK8c1BWOklBKLvUM4l/+SAWu9yXu/JAXPRopXW5UDvUByNjeqxlU4La4fk6d31cTG4F2Dlw7JXtRnRxcOVNpmwG74YwnOiaOma+b1lX9Sex6d1HR/+Xu60ADI4N/aEVe+ehyrL/n1jwNK+H9DlQMu4KBG9Fhl/MoHbe4fi7kDYdhRFnsuBZ4VflbzK/KrckGLOfhOHhERDPZiPW5PPkLjAuF01WgrYrcqqs3q36v8ve0c9bb5XVU3wmnJ8AwUVlwbn3XaZ/N60YTHdOiMYv9g454BbR3fb5WbL7w4CRywemoOiwYh58MJq8g6JN+ShTOxG6Tu8tDZhsvOQYTzhzURTY6g4comD6aWnplMGsokyHFOZ2KUhp5eeypPGTVobVBBkDpiaB6cobqjkMAdJzc0Bs1SnYYwdC6Az6jmFdbKA0tqoUMRySEp2piseWlqLSWdS+jky+jIHPesVzkj4LvmXNf3Qor5zELyQ0o7AkGFd6jeuGwjdtuTPlDhXraOljZqrKhmWKg9rUz1maphOTReMU+dhbSpfSVxHW1ISGaXNXOpa5XqcYnjnoDxpQO2UL2XkyEFgOI4x8bAOpzPOqAO+4XoL5pA3bHJlnnTqaZnMx1vnVOiTry3mLUkv56cYjM2patHCavLlIKx+QvhmDqL0W4UGLgOIVmRTyojB7Sj7aoncYl+PkXPPlbWB89K4Xg6VKw1TJQS1c9l36vxuAXXf053FbpuDSA4KtM1GPZWVXOebuVoitE0PyADMoYxBz3gYwwemvgnfDof2zTs0p/fdbKNNQ99IXLp2mjTLEEjfOB2P8YDjb+sA8g6Td5SkOc0iyenDOc3y4xJvKXGnaiBd3Zg6rKvgQuC7Owly48y+OX1jww/nScY1uyDe+/4Qs/MdHCSbPFuXBsepfEj1tlQ+7g5EEvXpSLGJk68PJ7mcfMCwO2X3xBXXmx5pmkyk3eq5BvWVuFOM0Wz1mrSnXezew8nedh5eWbf1cOK9rYfTB249nARx6+FA/tbDCSm3HndaTVIs3apBiQy91ZsSb1S79mZZDhA9qg83zNcvVa5bF9juwx0kmczYV5cnbzSzxeGmyR1vbtXRVJe51V+T9HIpvJ2SEg8EV1fWmAhSHoD42YFGKSur84Be9w5RCY6lBmUtvyQSGzVono415jNG6zyCcyCWc514cNJ8WtOWjQktOlkDkt3RuUfmfO+QFCHPjmKF7LoNzIYLKE23phtCiHV6xqEaqhcvmYsMa8V6QnJ89pLC0DkpV3NZLAwdSnKylCWBpUdKNw4kuEheAlsw7fWnWhe5Bd8hOm3aos/oWPdwhzASRr7YnZY/IkiJ1UmRI5+E9fXB68jbvUPWL/1gh+8dkqL8MfgdosohzIGS2BhcarPhXFTc8BAj3ANk1xGNxaNDd0QD/djiTOOqZYtExTWFcAb5CeA75YQhfnrfeg73U35Mcb5ou4XO0qas0cUSdipYJI2onVucJU2xDFhjixvNfxrji6jvaxCZj+Or4rriNhi0pt6YIg9a/V3H6/m4v7QT4PNsQXOr2pA1vSQql33B+em4vW17A71+QOItqLivsLgvaBq22j/g80gRsfCZXzf+q30FzDeXh2wY3+A6ZvG5UQcEM59fCXrcd7UPwfWlHQrTZj2KzDBzyz7XLmUjH4haVk5MuUflwxO3I3IdNy1iE02VNMFeqmG8vsR/i8BEvyQ9g7tarmF8lvHftHzMTgAcEdZk1z4n4HopTmgwcX9xmrDI0vPiSJSB68UlHZEBSnXkRsf9xZUXY+MWo648zy3mvHCDSf9+V/4nec6NTJiOSg7tQLkR/U43/hnnpztpE7myE70aIXHPO9ewJnIT0xhvdJ30yvYAKlAP3EbQBYnJT5S1as6n6NcnEtDKLXqcBKvjEa/oqvgNa5Ar89E2vtg2sWmQqNzyqyuXwZqZ1YGuiT0mMe4wb+Y87KYtL76vK+ombhsanAIcc5IFoiVoYYxLrk0kt4R6dEE+7bnN7kpiXJvaTZtXtceeJzdtZLFt602b2g2N5NrgIhMWfdtivP5NG19sqHLTJpj2gNWGWN+XQmgemmQwpi9Bk9SAcq7VplmfHxneoklzQMXO4pz1+Yk8qq74GfAIx2qTrW1/aX6uNty6HimHr66wH7k4El1PScY0xR364pahroR+EU/39kN72BVkv1cbd0ny8Po9uZ56XMsrStIyg9pdzYxzht61itIQ0/iaLTcfGu5EXMczqyMpqBx8fdfnZ7C0NyuI44Y3d5L1ncRdJeI0nncHTzaSe2XIzwDz1j6p/eaYhNpvDv6459kc9NCkan/mwSnWd2ed/DEMfmV/DGN30MO9A8r0iy997+7gqtK7E2G7Pxdi/3j8sZGfPv3yy7e/VfL8e/3jJPajb3/YJH//Hw==);lineShape=1;strokeColor=default;" vertex="1" parent="1">
                    <mxGeometry x="10" y="161.54" width="483.47" height="276.96" as="geometry"/>
                </mxCell>
            </root>
        </mxGraphModel>
    </diagram>
</mxfile>